<svg xmlns="http://www.w3.org/2000/svg" xmlns:xlink="http://www.w3.org/1999/xlink" fill="none" version="1.1" width="100" height="100" viewBox="0 0 100 100"><defs><clipPath id="master_svg0_104_3648"><rect x="0" y="0" width="100" height="100" rx="20"/></clipPath><clipPath id="master_svg1_104_3563"><rect x="5" y="5" width="90" height="90" rx="0"/></clipPath></defs><g clip-path="url(#master_svg0_104_3648)"><rect x="0" y="0" width="100" height="100" rx="20" fill="#10B981" fill-opacity="1"/><g><g clip-path="url(#master_svg1_104_3563)"><g><path d="M50,57.5Q45.3125,57.5,42.0313,54.2188Q38.75,50.9375,38.75,46.25L38.75,23.75Q38.75,19.0625,42.0313,15.78125Q45.3125,12.49999731779,50,12.5Q54.6875,12.50000268221,57.9688,15.78125Q61.25,19.0625,61.25,23.75L61.25,46.25Q61.25,50.9375,57.9688,54.2187Q54.6875,57.5,50,57.5ZM46.25,83.75L46.25,72.2188Q36.5,70.9062,30.125,63.5Q23.7500064373,56.0938,23.75,46.25L31.25,46.25Q31.25,54.0312,36.7362,59.5175Q42.2225,65.00370000000001,50,65Q57.7775,64.99629999999999,63.2675,59.5137Q68.7575,54.0312,68.75,46.25L76.25,46.25Q76.25,56.0938,69.875,63.5Q63.5,70.9062,53.75,72.2188L53.75,83.75L46.25,83.75Z" fill="#FFFFFF" fill-opacity="1" style="mix-blend-mode:passthrough"/></g></g></g></g></svg>